<svg width="24" height="24" viewBox="0 0 24 24" fill="none" xmlns="http://www.w3.org/2000/svg">
<path fill-rule="evenodd" clip-rule="evenodd" d="M19.4082 15.3042C21.656 9.78675 17.5969 3.75 11.6391 3.75H11.3177C6.86206 3.75 3.25006 7.36201 3.25006 11.8176C3.25006 16.7785 7.2716 20.8 12.2324 20.8H20.0527C20.3709 20.8 20.6546 20.5991 20.7602 20.2989C20.8658 19.9987 20.7705 19.6645 20.5223 19.4652L18.5508 17.8819C18.4646 17.8127 18.4341 17.6951 18.4758 17.5927L19.4082 15.3042ZM11.6391 5.25C16.5317 5.25 19.865 10.2074 18.019 14.7383L17.0867 17.0268C16.7947 17.7435 17.0082 18.5669 17.6116 19.0515L17.921 19.3H12.2324C8.10003 19.3 4.75006 15.95 4.75006 11.8176C4.75006 8.19044 7.69049 5.25 11.3177 5.25H11.6391Z" fill="black"/>
</svg>
