<svg width="50" height="50" viewBox="0 0 50 50" fill="none" xmlns="http://www.w3.org/2000/svg">
<path fill-rule="evenodd" clip-rule="evenodd" d="M13.0208 11.4583C13.0208 7.71891 16.0522 4.6875 19.7917 4.6875C21.8859 4.6875 23.758 5.63827 25 7.1317C26.242 5.63827 28.1141 4.6875 30.2083 4.6875C33.9478 4.6875 36.9792 7.71891 36.9792 11.4583C36.9792 12.8007 36.5886 14.0518 35.9148 15.1042H37.5C40.6641 15.1042 43.2292 17.6692 43.2292 20.8333V25C43.2292 26.6753 42.0992 28.0867 40.5598 28.5136C40.8599 32.319 40.6861 36.1493 40.0406 39.9161C39.6552 42.1654 37.8284 43.8885 35.5604 44.142L33.6553 44.3549C27.903 44.9978 22.097 44.9978 16.3448 44.3549L14.4396 44.142C12.1717 43.8885 10.3449 42.1654 9.95942 39.9161C9.31394 36.1493 9.1401 32.319 9.44024 28.5136C7.90084 28.0867 6.77084 26.6753 6.77084 25V20.8333C6.77084 17.6692 9.33588 15.1042 12.5 15.1042H14.0852C13.4115 14.0518 13.0208 12.8007 13.0208 11.4583ZM23.4375 11.4583C23.4375 9.4448 21.8052 7.8125 19.7917 7.8125C17.7781 7.8125 16.1458 9.4448 16.1458 11.4583C16.1458 13.4719 17.7781 15.1042 19.7917 15.1042C21.8052 15.1042 23.4375 13.4719 23.4375 11.4583ZM30.2083 15.1042C32.2219 15.1042 33.8542 13.4719 33.8542 11.4583C33.8542 9.4448 32.2219 7.8125 30.2083 7.8125C28.1948 7.8125 26.5625 9.4448 26.5625 11.4583C26.5625 13.4719 28.1948 15.1042 30.2083 15.1042ZM9.89584 20.8333C9.89584 19.3951 11.0618 18.2292 12.5 18.2292H23.4375V25.5208H10.4167C10.129 25.5208 9.89584 25.2876 9.89584 25V20.8333ZM26.5625 28.6458H37.4354C37.7277 32.2304 37.5686 35.8396 36.9605 39.3883C36.8102 40.2655 36.0978 40.9374 35.2133 41.0363L33.3082 41.2492C31.0658 41.4998 28.815 41.6487 26.5625 41.6957V28.6458ZM26.5625 25.5208H39.5833C39.871 25.5208 40.1042 25.2876 40.1042 25V20.8333C40.1042 19.3951 38.9383 18.2292 37.5 18.2292H26.5625V25.5208ZM23.4375 28.6458V41.6957C21.1851 41.6487 18.9342 41.4998 16.6919 41.2492L14.7867 41.0363C13.9023 40.9374 13.1898 40.2655 13.0395 39.3883C12.4314 35.8396 12.2724 32.2304 12.5647 28.6458H23.4375Z" fill="white"/>
</svg>
