<svg width="100" height="20" viewBox="0 0 100 20" fill="none" xmlns="http://www.w3.org/2000/svg">
<path d="M10.7208 2.49685C10.3996 1.94339 9.60036 1.94339 9.27921 2.49685L7.0175 6.39461C6.85886 6.66801 6.58465 6.85459 6.27209 6.90179L2.0335 7.54198C1.3216 7.64951 1.07188 8.54835 1.6263 9.00768L4.78388 11.6237C5.07616 11.8659 5.2136 12.2478 5.1426 12.6207L4.31662 16.9583C4.18605 17.644 4.90588 18.1768 5.5235 17.8516L9.51467 15.75C9.81845 15.5901 10.1815 15.5901 10.4853 15.75L14.4765 17.8516C15.0941 18.1768 15.8139 17.644 15.6834 16.9583L14.8574 12.6207C14.7864 12.2478 14.9238 11.8659 15.2161 11.6237L18.3737 9.00768C18.9281 8.54835 18.6784 7.64951 17.9665 7.54198L13.7279 6.9018C13.4153 6.85459 13.1411 6.66801 12.9825 6.39461L10.7208 2.49685Z" fill="#FB4747"/>
<path d="M30.7208 2.49685C30.3996 1.94339 29.6004 1.94339 29.2792 2.49685L27.0175 6.39461C26.8589 6.66801 26.5846 6.85459 26.2721 6.90179L22.0335 7.54198C21.3216 7.64951 21.0719 8.54835 21.6263 9.00768L24.7839 11.6237C25.0762 11.8659 25.2136 12.2478 25.1426 12.6207L24.3166 16.9583C24.1861 17.644 24.9059 18.1768 25.5235 17.8516L29.5147 15.75C29.8184 15.5901 30.1815 15.5901 30.4853 15.75L34.4765 17.8516C35.0941 18.1768 35.8139 17.644 35.6834 16.9583L34.8574 12.6207C34.7864 12.2478 34.9238 11.8659 35.2161 11.6237L38.3737 9.00768C38.9281 8.54835 38.6784 7.64951 37.9665 7.54198L33.7279 6.9018C33.4153 6.85459 33.1411 6.66801 32.9825 6.39461L30.7208 2.49685Z" fill="#FB4747"/>
<path d="M50.7208 2.49685C50.3996 1.94339 49.6004 1.94339 49.2792 2.49685L47.0175 6.39461C46.8589 6.66801 46.5846 6.85459 46.2721 6.90179L42.0335 7.54198C41.3216 7.64951 41.0719 8.54835 41.6263 9.00768L44.7839 11.6237C45.0762 11.8659 45.2136 12.2478 45.1426 12.6207L44.3166 16.9583C44.1861 17.644 44.9059 18.1768 45.5235 17.8516L49.5147 15.75C49.8184 15.5901 50.1815 15.5901 50.4853 15.75L54.4765 17.8516C55.0941 18.1768 55.8139 17.644 55.6834 16.9583L54.8574 12.6207C54.7864 12.2478 54.9238 11.8659 55.2161 11.6237L58.3737 9.00768C58.9281 8.54835 58.6784 7.64951 57.9665 7.54198L53.7279 6.9018C53.4153 6.85459 53.1411 6.66801 52.9825 6.39461L50.7208 2.49685Z" fill="#FB4747"/>
<path d="M70.7208 2.49685C70.3996 1.94339 69.6004 1.94339 69.2792 2.49685L67.0175 6.39461C66.8589 6.66801 66.5846 6.85459 66.2721 6.90179L62.0335 7.54198C61.3216 7.64951 61.0719 8.54835 61.6263 9.00768L64.7839 11.6237C65.0762 11.8659 65.2136 12.2478 65.1426 12.6207L64.3166 16.9583C64.1861 17.644 64.9059 18.1768 65.5235 17.8516L69.5147 15.75C69.8184 15.5901 70.1815 15.5901 70.4853 15.75L74.4765 17.8516C75.0941 18.1768 75.8139 17.644 75.6834 16.9583L74.8574 12.6207C74.7864 12.2478 74.9238 11.8659 75.2161 11.6237L78.3737 9.00768C78.9281 8.54835 78.6784 7.64951 77.9665 7.54198L73.7279 6.9018C73.4153 6.85459 73.1411 6.66801 72.9825 6.39461L70.7208 2.49685Z" fill="#FB4747"/>
<path d="M90.7208 2.49685C90.3996 1.94339 89.6004 1.94339 89.2792 2.49685L87.0175 6.39461C86.8589 6.66801 86.5846 6.85459 86.2721 6.90179L82.0335 7.54198C81.3216 7.64951 81.0719 8.54835 81.6263 9.00768L84.7839 11.6237C85.0762 11.8659 85.2136 12.2478 85.1426 12.6207L84.3166 16.9583C84.1861 17.644 84.9059 18.1768 85.5235 17.8516L89.5147 15.75C89.8184 15.5901 90.1815 15.5901 90.4853 15.75L94.4765 17.8516C95.0941 18.1768 95.8139 17.644 95.6834 16.9583L94.8574 12.6207C94.7864 12.2478 94.9238 11.8659 95.2161 11.6237L98.3737 9.00768C98.9281 8.54835 98.6784 7.64951 97.9665 7.54198L93.7279 6.9018C93.4153 6.85459 93.1411 6.66801 92.9825 6.39461L90.7208 2.49685Z" fill="#FB4747"/>
</svg>
