<svg width="50" height="50" viewBox="0 0 50 50" fill="none" xmlns="http://www.w3.org/2000/svg">
<path fill-rule="evenodd" clip-rule="evenodd" d="M6.77084 20.8954C6.77084 15.2694 11.7066 10.9375 17.5 10.9375C20.4864 10.9375 23.1143 12.3378 25 14.1497C26.8858 12.3378 29.5136 10.9375 32.5 10.9375C38.2935 10.9375 43.2292 15.2694 43.2292 20.8954C43.2292 24.7493 41.5857 28.1384 39.3087 31.0032C37.0357 33.863 34.0624 36.2902 31.2156 38.2624C30.1282 39.0157 29.0282 39.7106 28.0214 40.2234C27.0761 40.7048 25.9891 41.1458 25 41.1458C24.011 41.1458 22.924 40.7048 21.9786 40.2234C20.9718 39.7106 19.8718 39.0157 18.7845 38.2624C15.9376 36.2902 12.9643 33.863 10.6913 31.0032C8.41434 28.1384 6.77084 24.7493 6.77084 20.8954ZM17.5 14.0625C13.1682 14.0625 9.89584 17.2481 9.89584 20.8954C9.89584 23.8194 11.1371 26.5417 13.1377 29.0588C15.1423 31.5809 17.8394 33.8061 20.5641 35.6937C21.595 36.4079 22.5661 37.0157 23.3968 37.4387C24.2889 37.893 24.8056 38.0208 25 38.0208C25.1945 38.0208 25.7112 37.893 26.6032 37.4387C27.4339 37.0157 28.405 36.4079 29.436 35.6937C32.1606 33.8061 34.8578 31.5809 36.8623 29.0588C38.863 26.5417 40.1042 23.8194 40.1042 20.8954C40.1042 17.2481 36.8318 14.0625 32.5 14.0625C30.0122 14.0625 27.6892 15.5488 26.2387 17.4353C25.9429 17.8199 25.4852 18.0453 25 18.0453C24.5148 18.0453 24.0571 17.8199 23.7613 17.4353C22.3109 15.5488 19.9878 14.0625 17.5 14.0625Z" fill="black"/>
</svg>
